<mxfile host="app.diagrams.net" modified="2022-04-27T00:22:02.331Z" agent="5.0 (Windows NT 6.1; Win64; x64) AppleWebKit/537.36 (KHTML, like Gecko) Chrome/100.0.4896.127 Safari/537.36" etag="uBfJTLd1XRi5pdl52Klp" version="17.4.6" type="github">
  <diagram id="NuGhCuCXn89jM1DxHWVD" name="第 1 页">
    <mxGraphModel dx="1550" dy="836" grid="1" gridSize="10" guides="1" tooltips="1" connect="1" arrows="1" fold="1" page="1" pageScale="1" pageWidth="827" pageHeight="1169" math="0" shadow="0">
      <root>
        <mxCell id="0" />
        <mxCell id="1" parent="0" />
        <mxCell id="UTPSAvZ4_2cSBRxWdlkV-1" value="平台访问者" style="shape=umlActor;verticalLabelPosition=bottom;verticalAlign=top;html=1;" vertex="1" parent="1">
          <mxGeometry x="90" y="390" width="30" height="60" as="geometry" />
        </mxCell>
        <mxCell id="UTPSAvZ4_2cSBRxWdlkV-3" value="" style="rounded=0;whiteSpace=wrap;html=1;" vertex="1" parent="1">
          <mxGeometry x="244" y="210" width="186" height="560" as="geometry" />
        </mxCell>
        <mxCell id="UTPSAvZ4_2cSBRxWdlkV-4" value="项目上传" style="ellipse;whiteSpace=wrap;html=1;" vertex="1" parent="1">
          <mxGeometry x="277" y="260" width="114" height="50" as="geometry" />
        </mxCell>
        <mxCell id="UTPSAvZ4_2cSBRxWdlkV-6" value="项目定时" style="ellipse;whiteSpace=wrap;html=1;" vertex="1" parent="1">
          <mxGeometry x="280" y="320" width="114" height="50" as="geometry" />
        </mxCell>
        <mxCell id="UTPSAvZ4_2cSBRxWdlkV-7" value="项目更新" style="ellipse;whiteSpace=wrap;html=1;" vertex="1" parent="1">
          <mxGeometry x="285.5" y="385" width="110" height="55" as="geometry" />
        </mxCell>
        <mxCell id="UTPSAvZ4_2cSBRxWdlkV-8" value="资讯搜索" style="ellipse;whiteSpace=wrap;html=1;" vertex="1" parent="1">
          <mxGeometry x="285.5" y="450" width="110" height="50" as="geometry" />
        </mxCell>
        <mxCell id="UTPSAvZ4_2cSBRxWdlkV-9" value="资讯浏览" style="ellipse;whiteSpace=wrap;html=1;" vertex="1" parent="1">
          <mxGeometry x="282" y="510" width="117" height="50" as="geometry" />
        </mxCell>
        <mxCell id="UTPSAvZ4_2cSBRxWdlkV-12" value="平台管理员" style="shape=umlActor;verticalLabelPosition=bottom;verticalAlign=top;html=1;" vertex="1" parent="1">
          <mxGeometry x="570" y="390" width="30" height="60" as="geometry" />
        </mxCell>
        <mxCell id="UTPSAvZ4_2cSBRxWdlkV-21" value="" style="endArrow=none;html=1;rounded=0;entryX=0.011;entryY=0.276;entryDx=0;entryDy=0;entryPerimeter=0;" edge="1" parent="1" target="UTPSAvZ4_2cSBRxWdlkV-8">
          <mxGeometry width="50" height="50" relative="1" as="geometry">
            <mxPoint x="130" y="410" as="sourcePoint" />
            <mxPoint x="370" y="290" as="targetPoint" />
          </mxGeometry>
        </mxCell>
        <mxCell id="UTPSAvZ4_2cSBRxWdlkV-22" value="" style="endArrow=none;html=1;rounded=0;entryX=0.028;entryY=0.284;entryDx=0;entryDy=0;entryPerimeter=0;" edge="1" parent="1" target="UTPSAvZ4_2cSBRxWdlkV-9">
          <mxGeometry width="50" height="50" relative="1" as="geometry">
            <mxPoint x="130" y="430" as="sourcePoint" />
            <mxPoint x="370" y="290" as="targetPoint" />
          </mxGeometry>
        </mxCell>
        <mxCell id="UTPSAvZ4_2cSBRxWdlkV-23" value="" style="endArrow=none;html=1;rounded=0;exitX=1;exitY=0.5;exitDx=0;exitDy=0;" edge="1" parent="1" source="UTPSAvZ4_2cSBRxWdlkV-4">
          <mxGeometry width="50" height="50" relative="1" as="geometry">
            <mxPoint x="490" y="360" as="sourcePoint" />
            <mxPoint x="560" y="410" as="targetPoint" />
          </mxGeometry>
        </mxCell>
        <mxCell id="UTPSAvZ4_2cSBRxWdlkV-24" value="" style="endArrow=none;html=1;rounded=0;exitX=0.986;exitY=0.66;exitDx=0;exitDy=0;exitPerimeter=0;" edge="1" parent="1" source="UTPSAvZ4_2cSBRxWdlkV-6">
          <mxGeometry width="50" height="50" relative="1" as="geometry">
            <mxPoint x="320" y="340" as="sourcePoint" />
            <mxPoint x="560" y="420" as="targetPoint" />
          </mxGeometry>
        </mxCell>
        <mxCell id="UTPSAvZ4_2cSBRxWdlkV-25" value="" style="endArrow=none;html=1;rounded=0;exitX=1;exitY=0.5;exitDx=0;exitDy=0;" edge="1" parent="1" source="UTPSAvZ4_2cSBRxWdlkV-7">
          <mxGeometry width="50" height="50" relative="1" as="geometry">
            <mxPoint x="320" y="340" as="sourcePoint" />
            <mxPoint x="560" y="430" as="targetPoint" />
          </mxGeometry>
        </mxCell>
        <mxCell id="UTPSAvZ4_2cSBRxWdlkV-27" value="&lt;font style=&quot;font-size: 14px&quot;&gt;&lt;b&gt;资讯平台&lt;/b&gt;&lt;/font&gt;" style="text;html=1;strokeColor=none;fillColor=none;align=center;verticalAlign=middle;whiteSpace=wrap;rounded=0;" vertex="1" parent="1">
          <mxGeometry x="304" y="220" width="60" height="30" as="geometry" />
        </mxCell>
        <mxCell id="UTPSAvZ4_2cSBRxWdlkV-35" value="采集脚本" style="ellipse;whiteSpace=wrap;html=1;fontSize=12;" vertex="1" parent="1">
          <mxGeometry x="282" y="570" width="120" height="50" as="geometry" />
        </mxCell>
        <mxCell id="UTPSAvZ4_2cSBRxWdlkV-36" value="随机代理" style="ellipse;whiteSpace=wrap;html=1;fontSize=12;" vertex="1" parent="1">
          <mxGeometry x="282" y="630" width="120" height="40" as="geometry" />
        </mxCell>
        <mxCell id="UTPSAvZ4_2cSBRxWdlkV-37" value="数据入库" style="ellipse;whiteSpace=wrap;html=1;fontSize=12;" vertex="1" parent="1">
          <mxGeometry x="282" y="680" width="120" height="30" as="geometry" />
        </mxCell>
        <mxCell id="UTPSAvZ4_2cSBRxWdlkV-38" value="图片上传" style="ellipse;whiteSpace=wrap;html=1;fontSize=12;" vertex="1" parent="1">
          <mxGeometry x="282" y="720" width="120" height="30" as="geometry" />
        </mxCell>
        <mxCell id="UTPSAvZ4_2cSBRxWdlkV-42" value="" style="endArrow=none;html=1;rounded=0;fontSize=12;exitX=0.943;exitY=0.292;exitDx=0;exitDy=0;exitPerimeter=0;" edge="1" parent="1" source="UTPSAvZ4_2cSBRxWdlkV-35">
          <mxGeometry width="50" height="50" relative="1" as="geometry">
            <mxPoint x="400" y="620" as="sourcePoint" />
            <mxPoint x="570" y="480" as="targetPoint" />
          </mxGeometry>
        </mxCell>
        <mxCell id="UTPSAvZ4_2cSBRxWdlkV-43" value="" style="endArrow=none;html=1;rounded=0;fontSize=12;exitX=1;exitY=0.5;exitDx=0;exitDy=0;" edge="1" parent="1" source="UTPSAvZ4_2cSBRxWdlkV-36">
          <mxGeometry width="50" height="50" relative="1" as="geometry">
            <mxPoint x="400" y="540" as="sourcePoint" />
            <mxPoint x="580" y="480" as="targetPoint" />
          </mxGeometry>
        </mxCell>
        <mxCell id="UTPSAvZ4_2cSBRxWdlkV-44" value="" style="endArrow=none;html=1;rounded=0;fontSize=12;exitX=1;exitY=0.5;exitDx=0;exitDy=0;" edge="1" parent="1" source="UTPSAvZ4_2cSBRxWdlkV-37">
          <mxGeometry width="50" height="50" relative="1" as="geometry">
            <mxPoint x="400" y="540" as="sourcePoint" />
            <mxPoint x="590" y="480" as="targetPoint" />
          </mxGeometry>
        </mxCell>
        <mxCell id="UTPSAvZ4_2cSBRxWdlkV-45" value="" style="endArrow=none;html=1;rounded=0;fontSize=12;exitX=1;exitY=0.5;exitDx=0;exitDy=0;" edge="1" parent="1" source="UTPSAvZ4_2cSBRxWdlkV-38">
          <mxGeometry width="50" height="50" relative="1" as="geometry">
            <mxPoint x="400" y="540" as="sourcePoint" />
            <mxPoint x="600" y="480" as="targetPoint" />
          </mxGeometry>
        </mxCell>
        <mxCell id="UTPSAvZ4_2cSBRxWdlkV-46" style="edgeStyle=orthogonalEdgeStyle;rounded=0;orthogonalLoop=1;jettySize=auto;html=1;exitX=0.5;exitY=1;exitDx=0;exitDy=0;fontSize=12;" edge="1" parent="1" source="UTPSAvZ4_2cSBRxWdlkV-3" target="UTPSAvZ4_2cSBRxWdlkV-3">
          <mxGeometry relative="1" as="geometry" />
        </mxCell>
      </root>
    </mxGraphModel>
  </diagram>
</mxfile>
